# xmcd CD database file
#
# Track frame offsets:
#	150
#	16851
#	36113
#	52812
#
# Disc length: 957 seconds
#
# Revision: 1
# Processed by: cddbd v1.5.2PL0 Copyright (c) Steve Scherf et al.
# Submitted via: CDex 1.70beta2
#
DISCID=2203bb04
DTITLE=Lia - Over the Future
DYEAR=2006
DGENRE=JPop
TTITLE0=Over the Future
TTITLE1=Life ～Ultimate Blue Mix～
TTITLE2=Over the Future（オリジナル・カラオケ）
TTITLE3=Life ～Ultimate Blue Mix～（オリジナル・カラオケ）
EXTD=YEAR: 2006
EXTT0=
EXTT1=
EXTT2=
EXTT3=
PLAYORDER=
